<?xml version="1.0" standalone="no"?>
<!DOCTYPE svg PUBLIC "-//W3C//DTD SVG 20010904//EN"
 "http://www.w3.org/TR/2001/REC-SVG-20010904/DTD/svg10.dtd">
<svg version="1.0" xmlns="http://www.w3.org/2000/svg"
 width="512.000000pt" height="512.000000pt" viewBox="0 0 512.000000 512.000000"
 preserveAspectRatio="xMidYMid meet">
<metadata>
Created by potrace 1.14, written by Peter Selinger 2001-2017
</metadata>
<g transform="translate(0.000000,512.000000) scale(0.100000,-0.100000)"
fill="#000000" stroke="none">
<path d="M2390 4679 c-315 -38 -592 -127 -780 -250 -98 -65 -247 -219 -299
-312 -79 -141 -131 -337 -131 -500 l0 -67 188 2 187 3 6 90 c16 219 100 390
254 517 121 101 231 155 410 201 158 41 247 51 445 51 263 0 415 -31 598 -123
241 -121 390 -313 462 -596 46 -178 52 -260 57 -738 l5 -458 -38 17 c-396 172
-971 287 -1350 271 -739 -32 -1222 -330 -1349 -831 -99 -390 -9 -805 235
-1088 212 -246 505 -392 864 -429 156 -17 466 -6 577 20 284 65 507 189 715
396 124 124 214 251 291 411 l49 101 17 -346 c10 -190 21 -383 24 -429 l6 -83
136 3 136 3 3 1300 c2 816 -1 1371 -7 1491 -22 383 -87 607 -249 850 -175 260
-434 424 -793 499 -109 23 -152 27 -359 30 -129 2 -269 0 -310 -6z m390 -2165
c337 -38 801 -157 981 -249 l31 -17 -4 -251 c-5 -236 -7 -258 -32 -340 -31
-104 -59 -163 -131 -272 -101 -155 -265 -318 -436 -433 -77 -52 -249 -139
-339 -172 -163 -59 -263 -74 -480 -74 -279 0 -459 39 -621 134 -173 102 -305
284 -367 508 -24 89 -27 112 -26 272 1 156 4 186 27 272 68 258 214 411 498
527 193 78 358 108 604 110 88 0 221 -6 295 -15z"/>
</g>
</svg>
